<svg xmlns="http://www.w3.org/2000/svg" version="1.1" xmlns:xlink="http://www.w3.org/1999/xlink" xmlns:svgjs="http://svgjs.dev/svgjs" width="1440" height="560" preserveAspectRatio="none" viewBox="0 0 1440 560"><g mask="url(&quot;#SvgjsMask1019&quot;)" fill="none"><path d="M1512 560L0 560 L0 334.63Q39.38 254.01, 120 293.39Q207.92 261.31, 240 349.22Q283.23 272.45, 360 315.67Q403.31 286.98, 432 330.29Q474.11 252.4, 552 294.52Q646.98 269.5, 672 364.48Q687.59 308.07, 744 323.66Q763.99 271.65, 816 291.64Q885.16 240.8, 936 309.96Q1004.62 258.57, 1056 327.19Q1077.58 276.77, 1128 298.35Q1155.89 254.25, 1200 282.14Q1280.77 242.91, 1320 323.69Q1405.7 289.39, 1440 375.09Q1466.01 329.1, 1512 355.1z" fill="rgba(233, 146, 29, 1)"></path><path d="M1464 560L0 560 L0 430.1Q36.26 394.37, 72 430.63Q96.87 383.5, 144 408.36Q223.46 367.82, 264 447.28Q309.58 372.86, 384 418.43Q408.25 370.68, 456 394.93Q510.34 329.27, 576 383.61Q602.48 338.09, 648 364.56Q698.66 343.23, 720 393.89Q793.42 347.31, 840 420.73Q844.82 353.56, 912 358.38Q973.21 347.59, 984 408.8Q1027.4 332.2, 1104 375.6Q1129.85 329.45, 1176 355.29Q1231.13 338.42, 1248 393.55Q1273.01 346.56, 1320 371.58Q1376.7 356.28, 1392 412.98Q1444.65 393.63, 1464 446.28z" fill="rgba(232, 119, 44, 1)"></path><path d="M1488 560L0 560 L0 511.8Q36.31 476.12, 72 512.43Q115.76 436.19, 192 479.96Q228.17 396.13, 312 432.29Q401.06 401.35, 432 490.4Q474.98 413.38, 552 456.35Q595.96 380.31, 672 424.28Q771.99 404.27, 792 504.26Q838.05 430.31, 912 476.36Q936 428.36, 984 452.35Q1067.97 416.33, 1104 500.3Q1125.04 401.34, 1224 422.37Q1270.17 396.54, 1296 442.71Q1364.88 439.58, 1368 508.46Q1402.77 423.23, 1488 457.99z" fill="rgba(227, 117, 51, 1)"></path><path d="M1536 560L0 560 L0 492.28Q83.52 455.8, 120 539.32Q190.87 490.19, 240 561.06Q245.98 495.04, 312 501.02Q342.75 459.76, 384 490.51Q444.12 478.63, 456 538.74Q531.33 494.07, 576 569.4Q585.71 507.11, 648 516.81Q718.68 467.49, 768 538.18Q783.03 481.21, 840 496.25Q906.82 443.06, 960 509.88Q1046.87 476.75, 1080 563.61Q1103.28 514.89, 1152 538.18Q1164.53 478.71, 1224 491.25Q1267.61 462.86, 1296 506.46Q1374.26 464.72, 1416 542.97Q1452.61 459.58, 1536 496.18z" fill="rgba(231, 119, 18, 1)"></path></g><defs><mask id="SvgjsMask1019"><rect width="1440" height="560" fill="#ffffff"></rect></mask></defs></svg>